<svg version="1.1" width="266" height="68" viewBox="-1 -1 266 68" xmlns="http://www.w3.org/2000/svg" xmlns:xlink="http://www.w3.org/1999/xlink">
  <!-- Exported by Scratch - http://scratch.mit.edu/ -->
  <g id="ID0.5861498885788023" transform="matrix(1, 0, 0, 1, -324, -344)">
    <g id="ID0.8763670180924237">
      <g id="ID0.6080450466834009">
        <path id="ID0.7624328276142478" fill="#0094ff" d="M 120.611 75 L 109.328 75 L 109.328 59.725 L 69.664 59.725 L 69.664 75 L 58.381 75 L 58.381 43.885 C 58.381 39.343 59.162 35.162 60.724 31.344 C 62.287 27.525 64.457 24.241 67.234 21.493 C 70.011 18.744 73.295 16.603 77.085 15.070 C 80.875 13.537 85.012 12.770 89.496 12.770 L 114.926 12.770 C 115.707 12.770 116.445 12.915 117.139 13.204 C 117.834 13.493 118.441 13.898 118.962 14.419 C 119.483 14.940 119.888 15.547 120.177 16.242 C 120.466 16.936 120.611 17.674 120.611 18.455 L 120.611 75 Z M 69.664 48.442 L 109.328 48.442 L 109.328 24.053 L 89.496 24.053 C 89.149 24.053 88.418 24.104 87.305 24.205 C 86.191 24.306 84.903 24.559 83.442 24.964 C 81.981 25.369 80.441 25.991 78.821 26.830 C 77.201 27.669 75.711 28.827 74.351 30.302 C 72.991 31.778 71.870 33.622 70.988 35.835 C 70.105 38.048 69.664 40.732 69.664 43.885 L 69.664 48.442 Z Z M 182.667 43.625 C 182.667 45.187 182.392 46.872 181.843 48.680 C 181.293 50.488 180.403 52.166 179.174 53.714 C 177.944 55.262 176.339 56.557 174.357 57.598 C 172.375 58.640 169.967 59.160 167.131 59.160 L 146.779 59.160 L 146.779 48.442 L 167.131 48.442 C 168.665 48.442 169.851 47.972 170.690 47.031 C 171.529 46.091 171.948 44.927 171.948 43.538 C 171.948 42.062 171.478 40.905 170.538 40.066 C 169.598 39.227 168.462 38.808 167.131 38.808 L 146.779 38.808 C 145.245 38.808 144.059 39.278 143.220 40.218 C 142.381 41.158 141.962 42.323 141.962 43.711 L 141.962 59.464 C 141.962 60.969 142.432 62.140 143.372 62.979 C 144.312 63.818 145.477 64.238 146.866 64.238 L 167.131 64.238 L 167.131 75 L 146.779 75 C 145.216 75 143.531 74.725 141.723 74.175 C 139.915 73.626 138.237 72.736 136.689 71.507 C 135.141 70.277 133.847 68.671 132.805 66.690 C 131.764 64.708 131.243 62.299 131.243 59.464 L 131.243 43.625 C 131.243 42.062 131.518 40.377 132.068 38.569 C 132.617 36.761 133.507 35.083 134.736 33.535 C 135.966 31.987 137.572 30.693 139.553 29.651 C 141.535 28.610 143.944 28.089 146.779 28.089 L 167.131 28.089 C 168.694 28.089 170.379 28.364 172.187 28.913 C 173.995 29.463 175.673 30.353 177.221 31.582 C 178.769 32.812 180.063 34.418 181.105 36.399 C 182.146 38.381 182.667 40.789 182.667 43.625 Z Z M 234.699 31.561 C 235.162 32.631 235.285 33.716 235.068 34.815 C 234.851 35.915 234.352 36.869 233.571 37.679 L 207.490 63.717 L 234.612 63.717 L 234.612 75 L 193.907 75 C 192.750 75 191.701 74.675 190.761 74.024 C 189.820 73.373 189.119 72.541 188.656 71.528 C 188.222 70.458 188.113 69.366 188.330 68.252 C 188.547 67.138 189.075 66.162 189.914 65.323 L 215.865 39.372 L 188.743 39.372 L 188.743 28.089 L 229.535 28.089 C 230.663 28.089 231.697 28.393 232.638 29.000 C 233.578 29.608 234.265 30.461 234.699 31.561 Z Z M 264.295 75 L 259.261 75 C 257.641 75 255.912 74.725 254.075 74.175 C 252.238 73.626 250.524 72.722 248.933 71.463 C 247.342 70.205 246.025 68.570 244.984 66.559 C 243.942 64.549 243.422 62.082 243.422 59.160 L 243.422 8.257 L 254.705 8.257 L 254.705 59.160 C 254.705 60.549 255.139 61.656 256.006 62.480 C 256.874 63.305 257.959 63.717 259.261 63.717 L 264.295 63.717 L 264.295 75 Z Z M 322.576 59.160 C 322.576 61.099 322.330 62.842 321.838 64.390 C 321.346 65.937 320.695 67.297 319.885 68.469 C 319.075 69.641 318.135 70.639 317.065 71.463 C 315.994 72.288 314.873 72.960 313.701 73.481 C 312.530 74.002 311.344 74.385 310.143 74.631 C 308.942 74.877 307.807 75 306.736 75 L 286.384 75 C 284.821 75 283.115 74.725 281.263 74.175 C 279.411 73.626 277.697 72.722 276.121 71.463 C 274.544 70.205 273.227 68.570 272.171 66.559 C 271.116 64.549 270.588 62.082 270.588 59.160 L 270.588 43.885 C 270.588 40.992 271.116 38.540 272.171 36.529 C 273.227 34.519 274.544 32.884 276.121 31.626 C 277.697 30.367 279.411 29.463 281.263 28.913 C 283.115 28.364 284.821 28.089 286.384 28.089 L 306.736 28.089 C 309.629 28.089 312.089 28.610 314.114 29.651 C 316.139 30.693 317.773 32.002 319.017 33.579 C 320.261 35.155 321.166 36.869 321.730 38.721 C 322.294 40.573 322.576 42.294 322.576 43.885 L 322.576 59.160 Z M 311.293 43.972 C 311.293 42.410 310.902 41.252 310.121 40.500 C 309.340 39.748 308.212 39.372 306.736 39.372 L 286.470 39.372 C 284.966 39.372 283.823 39.755 283.042 40.522 C 282.261 41.289 281.870 42.410 281.870 43.885 L 281.870 59.160 C 281.870 60.636 282.261 61.764 283.042 62.545 C 283.823 63.326 284.966 63.717 286.470 63.717 L 306.736 63.717 C 308.270 63.717 309.412 63.326 310.165 62.545 C 310.917 61.764 311.293 60.636 311.293 59.160 L 311.293 43.972 Z " transform="matrix(1, 0, 0, 1, 266, 336)"/>
      </g>
    </g>
  </g>
</svg>
